<svg xmlns="http://www.w3.org/2000/svg" width="150.081" height="150.081" viewBox="0 0 150.081 150.081">
  <path id="github_1_" data-name="github (1)" d="M75.041,0C33.8,0,0,34.091,0,75.334a75,75,0,0,0,75.041,74.747c41.5,0,75.041-33.694,75.041-74.747C150.081,34.091,116.283,0,75.041,0ZM88.231,139.968a66.613,66.613,0,0,1-26.381,0V119.391c0-4.925,1.319-6.684,3.078-9.058.9-1.024,1.436-1.942,5.451-8l-6.771-1.056c-17.412-2.55-24.271-11.608-27-18.643-3.518-9.409-1.671-21.193,4.661-28.667a5.3,5.3,0,0,0,1.056-5.1c-1.32-4.045-1.144-10.464-.264-12.927,4.663.666,9.457,4.006,13.455,6.42a6.318,6.318,0,0,0,3.693.879c3.213-.669,8.225-2.287,15.917-2.287a53.883,53.883,0,0,1,14.686,2.11c.881-.021,2.3.728,4.748-.7,4.179-2.547,8.811-5.772,13.454-6.42.879,2.463,1.056,8.882-.263,12.927a5.3,5.3,0,0,0,1.056,5.1c6.331,7.475,8.178,19.258,4.66,28.667-2.726,7.035-9.585,16.093-27,18.643L79.7,102.331c4.151,6.263,4.588,7.014,5.453,8,1.758,2.375,3.077,4.134,3.077,9.058Zm8.794-2.55V119.391c0-5.013-1.056-8.354-2.463-10.817,13.367-3.6,22.865-11.52,27.086-22.864,4.485-11.959,2.463-26.205-5.013-36.055,1.32-5.891,1.32-15.3-1.846-19.7a6.865,6.865,0,0,0-5.8-2.99H108.9c-6.819.369-12.185,3.8-17.939,7.3a62.02,62.02,0,0,0-16.005-2.11,60.745,60.745,0,0,0-15.74,2.11c-6.057-3.653-11.372-6.939-18.38-7.3a6.745,6.745,0,0,0-5.541,2.99c-3.165,4.4-3.165,13.807-1.846,19.7-7.476,9.85-9.5,24.183-5.013,36.055,4.221,11.344,13.719,19.259,27.086,22.864a19.121,19.121,0,0,0-2.295,7.7,11.722,11.722,0,0,1-7.219.594,9.73,9.73,0,0,1-5.642-4.827c-3.492-5.867-9.441-10.657-16.214-10.034l.773,8.759c3.136-.287,6.258,3.031,7.879,5.766a18.1,18.1,0,0,0,20.254,9.024v11.857A66.093,66.093,0,0,1,8.794,75.334c0-36.406,29.841-66.54,66.247-66.54s66.247,30.134,66.247,66.54a66.093,66.093,0,0,1-44.262,62.085Zm0,0"/>
</svg>
