<svg xmlns="http://www.w3.org/2000/svg" width="150" height="150.086" viewBox="0 0 150 150.086">
  <g id="instagram_f_icon-icons.com_65485" transform="translate(-9.1 -8.869)">
    <path id="Caminho_3" data-name="Caminho 3" d="M159.027,83.887c0,10.521-.212,21.073.06,31.594.454,18.624-11.247,33.015-26.152,39.424a47.292,47.292,0,0,1-18.775,3.93c-20.347.03-40.724.3-61.071-.091-15.328-.3-27.936-6.712-36.975-19.349a37.745,37.745,0,0,1-7.014-22.4v-65C9.1,34.3,17.716,21.939,33.015,13.9A45.953,45.953,0,0,1,54.42,8.909c19.742,0,39.515-.121,59.257.06,15.328.121,28.117,5.986,37.55,18.321a37.832,37.832,0,0,1,7.8,23.522Zm-138.771,0v33.257a25.985,25.985,0,0,0,3.719,13.817C30.717,142,40.905,147.377,53.543,147.589c20.287.3,40.6.121,60.92.06a33.05,33.05,0,0,0,14.331-3.174c12.275-5.865,19.138-15.207,19.077-29.236-.121-21.466-.03-42.931-.03-64.4A27.282,27.282,0,0,0,142.52,34.3c-6.954-9.4-16.568-14.028-28.057-14.149-20.256-.242-40.513-.091-60.769-.06a35.692,35.692,0,0,0-12.547,2.388C30.021,26.626,19.682,37.117,20.165,52.566,20.528,63.026,20.256,73.457,20.256,83.887Z" transform="translate(0 0)"/>
    <path id="Caminho_4" data-name="Caminho 4" d="M176.252,202.536A35.02,35.02,0,0,1,141,167.647C140.97,148.6,156.812,133,176.191,133a34.771,34.771,0,1,1,.06,69.537Zm0-11.186a23.6,23.6,0,1,0,0-47.194c-13.272,0-24.1,10.551-24.1,23.582A23.867,23.867,0,0,0,176.252,191.35Z" transform="translate(-92.022 -86.602)"/>
    <path id="Caminho_5" data-name="Caminho 5" d="M370.476,98a7.718,7.718,0,1,1-7.377,7.77A7.592,7.592,0,0,1,370.476,98Z" transform="translate(-246.974 -62.183)"/>
  </g>
</svg>
