<svg xmlns="http://www.w3.org/2000/svg" width="149.296" height="149.296" viewBox="0 0 149.296 149.296">
  <path id="linkedin" d="M138.529,0H10.768A10.767,10.767,0,0,0,0,10.767V138.529A10.767,10.767,0,0,0,10.768,149.3H138.529A10.767,10.767,0,0,0,149.3,138.529V10.767A10.767,10.767,0,0,0,138.529,0ZM52.956,112.847H34.776v-54.7h18.18Zm-9.09-62.164h-.118c-6.1,0-10.046-4.2-10.046-9.448,0-5.367,4.066-9.451,10.286-9.451s10.046,4.083,10.165,9.451c0,5.249-3.946,9.448-10.286,9.448Zm74.643,62.164H100.332V83.586c0-7.354-2.632-12.369-9.21-12.369-5.022,0-8.013,3.383-9.328,6.649a12.45,12.45,0,0,0-.6,4.437v30.545H63.017s.238-49.564,0-54.7H81.2V65.9c2.416-3.727,6.739-9.028,16.384-9.028,11.961,0,20.93,7.817,20.93,24.617Zm0,0" transform="translate(0)"/>
</svg>
